<?xml version="1.0" encoding="utf-8"?>
<!-- Generator: Adobe Illustrator 22.1.0, SVG Export Plug-In . SVG Version: 6.00 Build 0)  -->
<svg version="1.1" id="Layer_1" xmlns="http://www.w3.org/2000/svg" xmlns:xlink="http://www.w3.org/1999/xlink" x="0px" y="0px"
	 viewBox="0 0 1536 1071.7" style="enable-background:new 0 0 1536 1071.7;" xml:space="preserve">
<style type="text/css">
	.st0{fill:#262626;}
	.st1{fill:none;}
</style>
<path class="st0" d="M1434.8,0h-9v0H110.2v0h-9C45.5,0,0,45.5,0,101.2V115l0,0c0,0,0,0,0,0v855.5c0,55.7,45.5,101.2,101.2,101.2h9
	H145H1391h34.8h9c55.7,0,101.2-45.5,101.2-101.2V101.2C1536,45.5,1490.5,0,1434.8,0z M1323.3,50.6L771,462.9l-3-2.2l-3,2.2
	L212.7,50.6H1323.3z M145,1021.1V222.4c206.6,153.8,411,308.4,618.7,454.7l1.2,0.8l3.1-2.2l3.1,2.2l1.2-0.8h0
	C980,530.9,1184.4,376.3,1391,222.4v798.7H145z"/>
<rect x="-256" y="-488.2" class="st1" width="2048" height="2048"/>
</svg>
